<?xml version="1.0" encoding="UTF-8"?>
<svg version="1.1" xmlns="http://www.w3.org/2000/svg" width="512" height="512">
<path d="M0 0 C1.10078878 -0.00525911 1.10078878 -0.00525911 2.22381571 -0.01062447 C4.6782546 -0.0199144 7.13245497 -0.01502141 9.58690357 -0.01015663 C11.36630837 -0.01389411 13.14571152 -0.01849602 14.92511207 -0.02388728 C19.81162798 -0.03612073 24.69807545 -0.03585639 29.58460319 -0.03349853 C34.85607164 -0.03309044 40.12751811 -0.04412872 45.39897633 -0.05361366 C55.72594341 -0.07022683 66.05288766 -0.07572336 76.37986698 -0.07683842 C84.77491003 -0.0777888 93.16994556 -0.08189859 101.56498623 -0.08823967 C125.36865733 -0.10585339 149.17231039 -0.1150784 172.97598805 -0.11357872 C174.90089543 -0.11345885 174.90089543 -0.11345885 176.86468983 -0.11333656 C178.14952917 -0.1132548 179.43436852 -0.11317304 180.75814239 -0.1130888 C201.57830339 -0.11227599 222.39839203 -0.13141202 243.21853211 -0.1596133 C264.59865144 -0.18834443 285.97873549 -0.20215344 307.35887462 -0.20042574 C319.3612936 -0.1997619 331.36363673 -0.20525194 343.36603832 -0.22678185 C353.58586139 -0.24499668 363.80557423 -0.24933848 374.0254065 -0.235763 C379.23802984 -0.22923478 384.45044173 -0.22911103 389.66304493 -0.2464695 C394.43946446 -0.26221157 399.21550509 -0.25932485 403.99191544 -0.24190123 C405.71532858 -0.23883384 407.43877007 -0.24245384 409.16214975 -0.25362138 C424.8795648 -0.34868534 437.96068155 2.64340583 449.90204334 13.51117516 C458.60808159 22.58117821 464.6629877 34.04797638 464.68554306 46.80497742 C464.69260865 48.08727065 464.69967424 49.36956388 464.70695394 50.69071448 C464.70470294 52.10121544 464.70225648 53.5117161 464.69963551 54.92221642 C464.70409058 56.43024917 464.70940551 57.93827958 464.71550423 59.44630659 C464.72966123 63.58243064 464.73134796 67.71847946 464.73090732 71.85462427 C464.73255745 76.31818535 464.74562724 80.78171561 464.75710011 85.24526024 C464.77992924 94.99900218 464.78786771 104.75272233 464.79292655 114.50648737 C464.79618444 120.59537804 464.80270727 126.68426239 464.80992794 132.77314949 C464.82948713 149.62989727 464.84589666 166.48663919 464.84880447 183.34339905 C464.84899204 184.4215735 464.84917961 185.49974795 464.84937287 186.61059435 C464.84973912 188.79629191 464.85010282 190.98198946 464.85046398 193.16768701 C464.85064679 194.25266896 464.8508296 195.33765091 464.85101795 196.45551109 C464.85128878 198.08496759 464.85128878 198.08496759 464.85156507 199.74734239 C464.85511036 217.36809215 464.88215793 234.98871997 464.91951584 252.60942741 C464.95755886 270.69778821 464.97696163 288.78608842 464.97726399 306.87449014 C464.97784928 317.03174232 464.98638808 327.18884884 465.01526165 337.34606361 C465.03972139 345.99020968 465.04709477 354.63415691 465.03201412 363.2783282 C465.02482432 367.69017233 465.0257915 372.10162338 465.04842472 376.51342392 C465.06893544 380.55003057 465.06648941 384.58593994 465.04554988 388.62253837 C465.04203983 390.08472853 465.04702882 391.54696819 465.06125432 393.00909336 C465.07931714 394.99306716 465.06368851 396.97726279 465.04630661 398.96124268 C465.04712107 400.06433293 465.04793552 401.16742318 465.04877466 402.30394042 C464.21797703 406.24047604 462.51440944 407.76686148 459.42548084 410.25726891 C456.61298084 410.56976891 456.61298084 410.56976891 454.42548084 410.25726891 C454.43333607 411.15651085 454.43333607 411.15651085 454.44134998 412.0739193 C454.46229528 414.82252493 454.4751964 417.57111368 454.48798084 420.31976891 C454.49635975 421.26271812 454.50473866 422.20566734 454.51337147 423.17719078 C454.52776684 427.30866302 454.46054854 431.06342247 453.72235584 435.14398766 C453.14053767 438.25957918 453.14053767 438.25957918 454.71844959 440.74164391 C455.34364491 441.48930016 455.96884022 442.23695641 456.61298084 443.00726891 C464.76044031 453.90856968 465.76785267 465.00134707 464.42548084 478.25726891 C462.2955847 489.43922366 454.91749483 499.2233369 445.80048084 505.82367516 C434.36534543 512.72613354 420.93853716 514.3132822 407.93719959 511.50336266 C396.40959427 507.43760974 387.34729515 499.181901 379.91160488 489.65466309 C372.18336193 480.11310499 365.06443361 472.53905676 352.4484808 471.0014018 C344.56904148 470.3070826 336.66453671 470.47279589 328.76703954 470.67791843 C324.26679855 470.76999115 319.76723979 470.7324488 315.26636219 470.71156883 C307.4905277 470.69256764 299.71866576 470.75273689 291.94371128 470.86827278 C280.69045765 471.03501197 269.43945767 471.07440933 258.18510182 471.08348282 C239.90378033 471.10124223 221.62437296 471.21387387 203.34393787 471.39008141 C185.63047673 471.56056333 167.9174203 471.69613061 150.20331287 471.77777672 C149.11068926 471.78283125 148.01806566 471.78788579 146.89233224 471.79309349 C134.95625929 471.84747933 123.02015995 471.89399947 111.08404446 471.93791199 C107.91587087 471.9497079 104.74769748 471.96155514 101.57952432 471.97346584 C99.4907943 471.98127156 97.40206382 471.9889524 95.31333287 471.99650641 C82.05425252 472.04509659 68.79597458 472.12749626 55.53734565 472.24703956 C48.85009277 472.30690792 42.16276864 472.35337809 35.47538428 472.39581428 C30.19912409 472.43032276 24.92341189 472.48171761 19.64744356 472.54667171 C16.43500342 472.58192548 13.22263192 472.60016606 10.01003344 472.61361213 C8.54743454 472.62313143 7.08485936 472.63953928 5.62243108 472.66382329 C-9.38156439 472.90616727 -21.81038029 469.23346469 -33.05108166 459.00336266 C-41.91719199 449.76659553 -47.81633946 438.26460171 -47.83178806 425.30744457 C-47.83529414 424.64112034 -47.83880021 423.9747961 -47.84241253 423.28828022 C-47.85168968 421.06356934 -47.84681286 418.83912237 -47.84194469 416.61440086 C-47.84568282 414.99998789 -47.850285 413.38557672 -47.85567534 411.77116841 C-47.86790079 407.34071348 -47.8676454 402.91033409 -47.86528659 398.47986615 C-47.8648783 393.69919874 -47.87591874 388.91855552 -47.88540173 384.1378994 C-47.90201057 374.77347067 -47.90751123 365.40906713 -47.90862648 356.0446249 C-47.90957708 348.43142756 -47.91368796 340.81823851 -47.92002773 333.20504379 C-47.93764038 311.61487344 -47.94686665 290.02472296 -47.94536678 268.43454538 C-47.94528687 267.27075361 -47.94520696 266.10696185 -47.94512463 264.90790367 C-47.94504286 263.74268892 -47.9449611 262.57747416 -47.94487686 261.37694987 C-47.94406412 242.4967436 -47.96319888 223.61661715 -47.99140136 204.73643396 C-48.02013846 185.34513592 -48.03394117 165.95387679 -48.03221381 146.56255692 C-48.03155016 135.67796184 -48.03703144 124.7934504 -48.05856991 113.90887451 C-48.07679261 104.64059084 -48.08112011 95.37242873 -48.06755106 86.10413489 C-48.06102675 81.37756758 -48.06088482 76.6512334 -48.07825756 71.92468834 C-48.09401717 67.59235718 -48.09109528 63.26044346 -48.0736893 58.9281223 C-48.07062573 57.36621532 -48.0742274 55.80427696 -48.08540945 54.242407 C-48.18744589 38.97105653 -44.78640371 26.28037949 -34.32061291 14.78070641 C-24.82535673 5.66647977 -13.26677935 0.01434286 0 0 Z " fill="#FEFEFE" transform="translate(47.57451915740967,-0.25726890563964844)"/>
<path d="M0 0 C1.10078878 -0.00525911 1.10078878 -0.00525911 2.22381571 -0.01062447 C4.6782546 -0.0199144 7.13245497 -0.01502141 9.58690357 -0.01015663 C11.36630837 -0.01389411 13.14571152 -0.01849602 14.92511207 -0.02388728 C19.81162798 -0.03612073 24.69807545 -0.03585639 29.58460319 -0.03349853 C34.85607164 -0.03309044 40.12751811 -0.04412872 45.39897633 -0.05361366 C55.72594341 -0.07022683 66.05288766 -0.07572336 76.37986698 -0.07683842 C84.77491003 -0.0777888 93.16994556 -0.08189859 101.56498623 -0.08823967 C125.36865733 -0.10585339 149.17231039 -0.1150784 172.97598805 -0.11357872 C174.90089543 -0.11345885 174.90089543 -0.11345885 176.86468983 -0.11333656 C178.14952917 -0.1132548 179.43436852 -0.11317304 180.75814239 -0.1130888 C201.57830339 -0.11227599 222.39839203 -0.13141202 243.21853211 -0.1596133 C264.59865144 -0.18834443 285.97873549 -0.20215344 307.35887462 -0.20042574 C319.3612936 -0.1997619 331.36363673 -0.20525194 343.36603832 -0.22678185 C353.58586139 -0.24499668 363.80557423 -0.24933848 374.0254065 -0.235763 C379.23802984 -0.22923478 384.45044173 -0.22911103 389.66304493 -0.2464695 C394.43946446 -0.26221157 399.21550509 -0.25932485 403.99191544 -0.24190123 C405.71532858 -0.23883384 407.43877007 -0.24245384 409.16214975 -0.25362138 C424.8795648 -0.34868534 437.96068155 2.64340583 449.90204334 13.51117516 C458.60808159 22.58117821 464.6629877 34.04797638 464.68554306 46.80497742 C464.69260865 48.08727065 464.69967424 49.36956388 464.70695394 50.69071448 C464.70470294 52.10121544 464.70225648 53.5117161 464.69963551 54.92221642 C464.70409058 56.43024917 464.70940551 57.93827958 464.71550423 59.44630659 C464.72966123 63.58243064 464.73134796 67.71847946 464.73090732 71.85462427 C464.73255745 76.31818535 464.74562724 80.78171561 464.75710011 85.24526024 C464.77992924 94.99900218 464.78786771 104.75272233 464.79292655 114.50648737 C464.79618444 120.59537804 464.80270727 126.68426239 464.80992794 132.77314949 C464.82948713 149.62989727 464.84589666 166.48663919 464.84880447 183.34339905 C464.84899204 184.4215735 464.84917961 185.49974795 464.84937287 186.61059435 C464.84973912 188.79629191 464.85010282 190.98198946 464.85046398 193.16768701 C464.85064679 194.25266896 464.8508296 195.33765091 464.85101795 196.45551109 C464.85128878 198.08496759 464.85128878 198.08496759 464.85156507 199.74734239 C464.85511036 217.36809215 464.88215793 234.98871997 464.91951584 252.60942741 C464.95755886 270.69778821 464.97696163 288.78608842 464.97726399 306.87449014 C464.97784928 317.03174232 464.98638808 327.18884884 465.01526165 337.34606361 C465.03972139 345.99020968 465.04709477 354.63415691 465.03201412 363.2783282 C465.02482432 367.69017233 465.0257915 372.10162338 465.04842472 376.51342392 C465.06893544 380.55003057 465.06648941 384.58593994 465.04554988 388.62253837 C465.04203983 390.08472853 465.04702882 391.54696819 465.06125432 393.00909336 C465.07931714 394.99306716 465.06368851 396.97726279 465.04630661 398.96124268 C465.04712107 400.06433293 465.04793552 401.16742318 465.04877466 402.30394042 C464.21466246 406.25618132 462.54267497 407.7707372 459.42548084 410.25726891 C455.53281805 410.81336359 453.25400218 410.63386951 449.67548084 409.00726891 C446.599273 406.61466281 444.64366562 404.71591278 444.05288535 400.76633382 C444.05402451 399.82310852 444.05516368 398.87988322 444.05633736 397.90807533 C444.05036474 396.81643326 444.04439213 395.72479118 444.03823853 394.60006905 C444.04697652 393.40197735 444.05571451 392.20388565 444.06471729 390.96948814 C444.06214924 389.69916237 444.05958118 388.42883659 444.05693531 387.1200161 C444.0501968 383.5845295 444.06225939 380.04931474 444.07726265 376.51386267 C444.09034303 372.64637419 444.08598012 368.77889866 444.0838089 364.91139412 C444.08221248 357.40054352 444.09607834 349.88980033 444.11531289 342.37897734 C444.13689195 333.69305214 444.13929598 325.00719168 444.14166737 316.32123375 C444.15742578 293.38322841 444.19930902 270.44524705 444.23798084 247.50726891 C444.29985584 196.27476891 444.36173084 145.04226891 444.42548084 92.25726891 C288.66548084 92.25726891 132.90548084 92.25726891 -27.57451916 92.25726891 C-27.49201916 147.49101891 -27.40951916 202.72476891 -27.32451916 259.63226891 C-27.30872814 277.08279137 -27.29293713 294.53331383 -27.27666759 312.51264 C-27.24345434 328.13332808 -27.24345434 328.13332808 -27.20495129 343.75400352 C-27.1879224 350.72025588 -27.18176008 357.68641432 -27.18297863 364.65268517 C-27.18434669 372.68782782 -27.17191441 380.72280821 -27.14248027 388.75789926 C-27.12785808 392.86773204 -27.11940263 396.97731234 -27.12869501 401.08716655 C-27.13698695 404.80700981 -27.12680871 408.5263365 -27.10217762 412.24610329 C-27.09382972 414.22111511 -27.10502402 416.19618005 -27.1170187 418.1711731 C-27.03307599 426.90201804 -25.66169337 434.45436102 -20.32451916 441.56976891 C-10.49357378 451.17728371 0.30659517 451.55665968 13.49141407 451.49777794 C14.90986407 451.4986512 16.32831376 451.5004044 17.74676174 451.50295627 C21.62580761 451.50741013 25.50474221 451.49945324 29.38377392 451.48940015 C33.57383879 451.48073955 37.7638977 451.48368765 41.953969 451.4852047 C49.2073467 451.4862519 56.46068834 451.47999252 63.71405697 451.46872902 C74.20112377 451.45245464 84.68817318 451.44726403 95.17525124 451.44475304 C112.19104403 451.44037898 129.20681762 451.42707771 146.22259998 451.40814781 C162.7489662 451.38978154 179.27532718 451.37562869 195.80170155 451.36713219 C196.82088952 451.36660674 197.8400775 451.36608129 198.89014996 451.36553992 C204.00326658 451.36292979 209.11638325 451.36040239 214.22949994 451.35791612 C256.62817354 451.33719261 299.0268262 451.30197494 341.42548084 451.25726891 C340.79099018 450.62499886 340.15649952 449.99272881 339.50278187 449.34129906 C333.52614864 443.38469606 327.55191896 437.42569514 321.58038235 431.46398258 C318.51021578 428.39903641 315.43912514 425.33502819 312.36591053 422.27313805 C309.40058915 419.3186754 306.43771131 416.36178257 303.47651768 413.40318298 C302.34587277 412.27438692 301.21434751 411.14647194 300.08193302 410.01945114 C298.49701226 408.44178037 296.91523956 406.86101688 295.33417225 405.2794857 C294.43260395 404.38013802 293.53103565 403.48079033 292.6021471 402.55418968 C289.59326032 399.37907061 288.43861261 398.03204295 288.36298084 393.56976891 C289.24129665 388.09027599 292.60143196 385.04034584 296.42548084 381.25726891 C297.31235584 380.35750328 298.19923084 379.45773766 299.11298084 378.53070641 C301.53410664 376.08894601 303.97193343 373.66638588 306.42548084 371.25726891 C305.09628793 368.28916822 303.64685941 366.25163102 301.30048084 364.00726891 C300.35173084 363.09976891 299.40298084 362.19226891 298.42548084 361.25726891 C295.33061337 362.62945111 292.75788863 364.44315981 290.064641 366.48041344 C263.05910439 386.74425224 231.81913867 395.30865388 198.42548084 394.25726891 C197.20344959 394.23793297 195.98141834 394.21859703 194.72235584 394.19867516 C178.74236097 393.57386493 162.90161093 388.86982216 148.42548084 382.25726891 C146.65624256 381.4548275 146.65624256 381.4548275 144.85126209 380.63617516 C109.61799449 363.85289147 85.23069949 334.14878269 72.23798084 297.94867516 C71.1914053 294.73944937 70.28854271 291.52060585 69.42548084 288.25726891 C69.2435619 287.62288902 69.06164295 286.98850914 68.87421131 286.33490562 C65.82457791 275.51038269 65.06424335 265.05479196 65.05048084 253.81976891 C65.04886951 252.5643026 65.04725819 251.30883629 65.04559803 250.01532555 C65.13808927 242.24554773 65.89148163 234.87104144 67.42548084 227.25726891 C67.57130604 226.50308678 67.71713123 225.74890465 67.86737537 224.97186852 C75.08624907 189.04214103 97.09103081 156.8346208 127.42548084 136.19476891 C137.54019103 129.49118572 155.89488579 117.35043922 168.42548084 119.25726891 C174.00442821 122.41516364 174.00442821 122.41516364 175.42548084 125.25726891 C176.10910241 132.2074215 176.10910241 132.2074215 173.67548084 135.94476891 C169.91820586 138.61821456 166.19326396 140.14135798 161.92157459 141.83539391 C130.86297773 154.46704671 107.5926995 177.40747298 94.42548084 208.25726891 C82.66921978 236.93868408 82.98393004 270.06221371 94.50800037 298.73407555 C99.56711425 310.63530339 105.87446731 321.52278177 114.42548084 331.25726891 C115.07645741 332.05133141 115.72743397 332.84539391 116.39813709 333.66351891 C135.36978739 356.07488898 163.58596657 369.5400521 192.42548084 373.25726891 C196.70099499 373.53889552 200.95408006 373.59180478 205.23798084 373.56976891 C206.94800282 373.56239708 206.94800282 373.56239708 208.69257069 373.55487633 C217.30500256 373.43541238 225.10939009 372.62248243 233.42548084 370.25726891 C234.06598377 370.08034508 234.7064867 369.90342125 235.36639881 369.72113609 C253.90485805 364.54199597 269.65130889 356.66950146 284.42548084 344.25726891 C285.16411366 343.66558922 285.90274647 343.07390953 286.66376209 342.46430016 C309.00898451 323.8498964 321.68588391 294.58524384 325.42548084 266.25726891 C327.87600443 232.66223838 318.90184072 201.68639555 297.30829334 175.71039391 C283.18398369 159.52524192 266.98269754 148.80716554 247.05829334 140.92523766 C245.98321522 140.49855797 244.90813709 140.07187828 243.80048084 139.63226891 C242.83884022 139.26875328 241.87719959 138.90523766 240.88641834 138.53070641 C238.10698977 137.09246242 236.94541909 135.97820754 235.42548084 133.25726891 C234.61307064 129.10007075 234.74133348 125.4470904 236.86298084 121.75726891 C241.19066542 119.22399013 245.90552757 118.68132386 250.80756092 119.8017025 C253.2968824 120.66646525 255.69733835 121.64170566 258.11298084 122.69476891 C258.98438709 123.06094322 259.85579334 123.42711754 260.75360584 123.80438805 C277.28643562 130.91271351 291.34628175 140.91431612 304.42548084 153.25726891 C305.16282459 153.93015953 305.90016834 154.60305016 306.65985584 155.29633141 C330.9671727 178.31070587 345.47585079 213.16451606 346.67938709 246.35492516 C347.49598971 280.70172619 338.26817816 311.94798265 317.45673084 339.47211266 C315.24321827 342.34560455 315.24321827 342.34560455 313.42548084 346.25726891 C316.06548084 348.89726891 318.70548084 351.53726891 321.42548084 354.25726891 C324.79427341 352.57287262 326.2673528 351.64653371 328.73798084 349.06976891 C329.33868397 348.45359703 329.93938709 347.83742516 330.55829334 347.20258141 C331.17446522 346.56062828 331.79063709 345.91867516 332.42548084 345.25726891 C333.64977911 343.98174477 334.87879899 342.71073226 336.11298084 341.44476891 C336.92315662 340.59978844 336.92315662 340.59978844 337.74969959 339.73773766 C340.5199381 337.29037077 342.55951844 336.347332 346.26179695 335.96228218 C350.21869976 336.33122985 351.38999457 337.43479365 354.21239185 340.17627525 C355.07591959 341.00258698 355.93944733 341.8288987 356.82914257 342.68025017 C358.11433002 343.95587444 358.11433002 343.95587444 359.42548084 345.25726891 C360.19718931 346.00627213 360.96889778 346.75527534 361.76399136 347.52697563 C364.14059806 349.85007129 366.4901369 352.19795478 368.83490467 354.55316734 C369.71590839 355.43402504 370.59691212 356.31488274 371.50461292 357.22243309 C373.88833056 359.60672231 376.26982716 361.99318764 378.6503098 364.38070393 C381.15652609 366.89324017 383.66564054 369.40287907 386.17442799 371.91284752 C390.91589324 376.65740445 395.65480817 381.40449999 400.3927781 386.15254712 C405.77237984 391.5433432 411.15483339 396.93128804 416.53752959 402.31899405 C425.74038948 411.5305145 434.94113979 420.74413654 444.13948536 429.96016502 C444.8975951 430.71971992 445.65570484 431.47927483 446.43678761 432.26184654 C447.13270826 432.9596196 447.82862892 433.65739265 448.54563808 434.37631035 C449.70015079 435.53150833 450.85678552 436.68459602 452.01697826 437.83408928 C454.46670911 440.26175191 456.61207605 442.6473274 458.55048084 445.50726891 C459.02743397 446.19305016 459.50438709 446.87883141 459.99579334 447.58539391 C463.64930794 454.41327365 464.96377201 460.93434334 464.86298084 468.63226891 C464.85395741 469.46371422 464.84493397 470.29515953 464.83563709 471.15180016 C464.48173281 483.754725 459.308406 493.57277041 450.25751209 502.36273766 C438.77849785 511.89133532 425.81591981 513.42784127 411.42548084 512.25726891 C398.245713 509.40878605 388.01465179 500.03697502 379.91160488 489.65466309 C372.18336193 480.11310499 365.06443361 472.53905676 352.4484808 471.0014018 C344.56904148 470.3070826 336.66453671 470.47279589 328.76703954 470.67791843 C324.26679855 470.76999115 319.76723979 470.7324488 315.26636219 470.71156883 C307.4905277 470.69256764 299.71866576 470.75273689 291.94371128 470.86827278 C280.69045765 471.03501197 269.43945767 471.07440933 258.18510182 471.08348282 C239.90378033 471.10124223 221.62437296 471.21387387 203.34393787 471.39008141 C185.63047673 471.56056333 167.9174203 471.69613061 150.20331287 471.77777672 C149.11068926 471.78283125 148.01806566 471.78788579 146.89233224 471.79309349 C134.95625929 471.84747933 123.02015995 471.89399947 111.08404446 471.93791199 C107.91587087 471.9497079 104.74769748 471.96155514 101.57952432 471.97346584 C99.4907943 471.98127156 97.40206382 471.9889524 95.31333287 471.99650641 C82.05425252 472.04509659 68.79597458 472.12749626 55.53734565 472.24703956 C48.85009277 472.30690792 42.16276864 472.35337809 35.47538428 472.39581428 C30.19912409 472.43032276 24.92341189 472.48171761 19.64744356 472.54667171 C16.43500342 472.58192548 13.22263192 472.60016606 10.01003344 472.61361213 C8.54743454 472.62313143 7.08485936 472.63953928 5.62243108 472.66382329 C-9.38156439 472.90616727 -21.81038029 469.23346469 -33.05108166 459.00336266 C-41.91719199 449.76659553 -47.81633946 438.26460171 -47.83178806 425.30744457 C-47.83529414 424.64112034 -47.83880021 423.9747961 -47.84241253 423.28828022 C-47.85168968 421.06356934 -47.84681286 418.83912237 -47.84194469 416.61440086 C-47.84568282 414.99998789 -47.850285 413.38557672 -47.85567534 411.77116841 C-47.86790079 407.34071348 -47.8676454 402.91033409 -47.86528659 398.47986615 C-47.8648783 393.69919874 -47.87591874 388.91855552 -47.88540173 384.1378994 C-47.90201057 374.77347067 -47.90751123 365.40906713 -47.90862648 356.0446249 C-47.90957708 348.43142756 -47.91368796 340.81823851 -47.92002773 333.20504379 C-47.93764038 311.61487344 -47.94686665 290.02472296 -47.94536678 268.43454538 C-47.94528687 267.27075361 -47.94520696 266.10696185 -47.94512463 264.90790367 C-47.94504286 263.74268892 -47.9449611 262.57747416 -47.94487686 261.37694987 C-47.94406412 242.4967436 -47.96319888 223.61661715 -47.99140136 204.73643396 C-48.02013846 185.34513592 -48.03394117 165.95387679 -48.03221381 146.56255692 C-48.03155016 135.67796184 -48.03703144 124.7934504 -48.05856991 113.90887451 C-48.07679261 104.64059084 -48.08112011 95.37242873 -48.06755106 86.10413489 C-48.06102675 81.37756758 -48.06088482 76.6512334 -48.07825756 71.92468834 C-48.09401717 67.59235718 -48.09109528 63.26044346 -48.0736893 58.9281223 C-48.07062573 57.36621532 -48.0742274 55.80427696 -48.08540945 54.242407 C-48.18744589 38.97105653 -44.78640371 26.28037949 -34.32061291 14.78070641 C-24.82535673 5.66647977 -13.26677935 0.01434286 0 0 Z " fill="#000000" transform="translate(47.57451915740967,-0.25726890563964844)"/>
<path d="M0 0 C3.64256556 1.65571162 5.99511125 3.5178248 8 7 C8 8.32 8 9.64 8 11 C8.70125 10.97679688 9.4025 10.95359375 10.125 10.9296875 C16.15558862 10.81497522 21.22443873 11.25643433 27 13 C27.02835938 13.59167969 27.05671875 14.18335937 27.0859375 14.79296875 C27.53468734 18.51031539 27.90772512 21.13454833 30.9375 23.53515625 C33.58127335 24.85280611 36.23850361 25.95100204 39 27 C40.98112625 27.80771017 42.9602646 28.62031145 44.9375 29.4375 C45.94554687 29.85257813 46.95359375 30.26765625 47.9921875 30.6953125 C61.3622762 36.49480552 72.44667355 45.06531683 83 55 C83.60328125 55.53882813 84.2065625 56.07765625 84.828125 56.6328125 C104.04081407 74.49881776 116.74024381 104.05069153 118.1640625 129.98876953 C118.62909226 142.94566126 118.56660142 155.4598294 115 168 C114.82307617 168.64050293 114.64615234 169.28100586 114.46386719 169.94091797 C109.29047414 188.45880587 101.44072313 204.26756472 89 219 C88.33484375 219.81210937 87.6696875 220.62421875 86.984375 221.4609375 C67.79717688 243.98812937 39.03513591 257.28490808 10 261 C5.66168815 261.26027235 1.34500885 261.28096206 -3 261.25 C-4.08539063 261.25773437 -5.17078125 261.26546875 -6.2890625 261.2734375 C-33.64952472 261.20813807 -60.5929642 249.96807086 -81 232 C-82.26263672 230.93652344 -82.26263672 230.93652344 -83.55078125 229.8515625 C-97.75695961 217.61171365 -107.96382922 202.30162889 -115 185 C-115.34546875 184.20207031 -115.6909375 183.40414062 -116.046875 182.58203125 C-127.9364402 153.08676374 -125.30367773 119.7654712 -113.13720703 90.95703125 C-100.03147021 60.99278167 -75.00429086 38.83589899 -44.9140625 26.76171875 C-44.03492188 26.42785156 -43.15578125 26.09398437 -42.25 25.75 C-38.70736181 24.37462282 -36.15606672 23.28097109 -34 20 C-33.19234122 16.35278304 -33.19234122 16.35278304 -33 13 C-26.23514355 11.3879491 -19.95041086 10.73381405 -13 11 C-12.938125 10.113125 -12.87625 9.22625 -12.8125 8.3125 C-11.08479582 1.26878295 -6.98859692 -0.99837099 0 0 Z " fill="#C6F3FD" transform="translate(256,113)"/>
<path d="M0 0 C0.71473242 -0.00235223 1.42946484 -0.00470446 2.16585582 -0.00712797 C4.56117163 -0.01378571 6.95643279 -0.01336073 9.35175705 -0.01294994 C11.08635024 -0.01625055 12.82094267 -0.01997654 14.55553412 -0.02409142 C19.32273563 -0.03409666 24.08992454 -0.03782582 28.85713506 -0.04048073 C33.99837862 -0.04438803 39.13961225 -0.0539659 44.28084946 -0.0626936 C56.6952605 -0.08244337 69.10967235 -0.09252118 81.52409518 -0.10142139 C87.37047607 -0.1058057 93.21685606 -0.11117204 99.06323624 -0.11641026 C118.49687258 -0.13341912 137.93050836 -0.14791424 157.364151 -0.155159 C162.40565364 -0.15706887 167.44715628 -0.15898921 172.48865891 -0.16094494 C173.74169161 -0.16142868 174.99472432 -0.16191242 176.28572771 -0.16241082 C196.59321165 -0.17071477 216.90063675 -0.19605938 237.20809498 -0.22852562 C258.0570632 -0.26158598 278.90600149 -0.27960673 299.75499606 -0.28280324 C311.46114804 -0.284969 323.16721416 -0.29372776 334.87334061 -0.31926441 C344.84034922 -0.34095718 354.8072511 -0.34902871 364.77428064 -0.33929763 C369.85906371 -0.33474918 374.9436265 -0.33667109 380.02837944 -0.35605907 C384.68568682 -0.37366389 389.34261275 -0.37271475 393.99992403 -0.35716178 C395.68228488 -0.35478168 397.36467196 -0.35913012 399.04699269 -0.37099043 C410.43514864 -0.44628638 420.47619428 0.24892745 429.18348312 8.44281483 C440.46273509 20.90178447 437.71473312 35.46366496 437.71473312 52.13422108 C281.95473312 52.13422108 126.19473312 52.13422108 -34.28526688 52.13422108 C-34.28526688 18.48806723 -34.28526688 18.48806723 -26.28526688 9.13422108 C-18.33950178 1.85708201 -10.65403203 0.01499017 0 0 Z " fill="#77D1F9" transform="translate(54.2852668762207,19.865778923034668)"/>
<path d="M0 0 C1.48133678 0.8790081 2.94393263 1.7913238 4.375 2.75 C5.303125 3.348125 6.23125 3.94625 7.1875 4.5625 C11.83198955 9.20698955 15.29067809 14.66381794 15.47265625 21.32421875 C15.46603244 22.69534658 15.45414198 24.06645717 15.4375 25.4375 C15.43298828 26.13939453 15.42847656 26.84128906 15.42382812 27.56445312 C15.41206927 29.29300538 15.39413454 31.02151365 15.375 32.75 C16.11105469 33.01683594 16.84710938 33.28367188 17.60546875 33.55859375 C25.58920762 36.99306534 32.23448146 43.87263051 37.375 50.75 C37.375 51.41 37.375 52.07 37.375 52.75 C37.89449219 52.29109375 38.41398438 51.8321875 38.94921875 51.359375 C40.39025441 50.09147671 41.83576925 48.82865552 43.28515625 47.5703125 C44.8714786 46.18858125 46.44002305 44.78640772 48 43.375 C50.93778062 41.36493957 52.8146496 40.82266021 56.375 40.75 C60.34972063 42.27873871 61.99353665 43.17780497 64.375 46.75 C64.98161568 50.72670277 65.31734758 53.23800179 63.16015625 56.69921875 C60.52702898 59.75364638 57.6872007 62.47042404 54.68359375 65.16015625 C53.77738281 65.99417969 52.87117187 66.82820313 51.9375 67.6875 C50.64005859 68.81478516 50.64005859 68.81478516 49.31640625 69.96484375 C46.59654291 73.8667805 46.96178121 77.13666697 47.375 81.75 C48.60476563 81.70359375 49.83453125 81.6571875 51.1015625 81.609375 C52.7343506 81.57183964 54.36716511 81.53544138 56 81.5 C56.80824219 81.46648437 57.61648438 81.43296875 58.44921875 81.3984375 C63.93300755 81.3092702 67.03986302 82.05761203 71.375 85.75 C72.98347182 88.96694364 72.98809149 92.27137222 72.375 95.75 C70.19925584 98.44105198 68.46434144 100.20532928 65.375 101.75 C63.99951844 101.83308638 62.62014204 101.85736016 61.2421875 101.84765625 C60.43652344 101.84443359 59.63085938 101.84121094 58.80078125 101.83789062 C57.53814453 101.82532227 57.53814453 101.82532227 56.25 101.8125 C55.40050781 101.80798828 54.55101562 101.80347656 53.67578125 101.79882812 C51.57549091 101.78702874 49.4752367 101.76909306 47.375 101.75 C46.67683069 105.93351844 46.42717582 109.33808817 48.85888672 112.96044922 C50.92614202 115.14999717 53.06836783 117.17979297 55.3125 119.1875 C56.80219989 120.58051569 58.29055114 121.97497548 59.77734375 123.37109375 C60.44241943 123.9736499 61.10749512 124.57620605 61.79272461 125.19702148 C64.34562297 127.70265125 64.38608615 128.86270919 64.75 132.5625 C64.68291111 135.91084564 64.35438747 136.78191618 62.4375 139.75 C58.9192658 142.04762234 56.85923612 142.59566648 52.71484375 142.375 C48.27585416 141.18929327 45.51783159 137.94065729 42.375 134.75 C40.71848188 133.40407903 39.05693932 132.0640151 37.375 130.75 C37.12621094 131.48476563 36.87742187 132.21953125 36.62109375 132.9765625 C31.38602101 144.62829181 17.27312094 151.25777288 6.1015625 155.8046875 C-7.12665666 160.39097552 -24.9324997 159.46073004 -37.625 153.75 C-38.54925781 153.34910156 -39.47351563 152.94820312 -40.42578125 152.53515625 C-49.15293437 148.27650303 -58.30135066 140.98726823 -63.625 132.75 C-63.625 132.09 -63.625 131.43 -63.625 130.75 C-64.14449219 131.20890625 -64.66398437 131.6678125 -65.19921875 132.140625 C-66.64182192 133.40990247 -68.09138022 134.6713076 -69.546875 135.92578125 C-71.10231149 137.29117381 -72.59899743 138.72399743 -74.0625 140.1875 C-77.875025 142.51221036 -81.28257057 142.62947938 -85.625 141.75 C-88.77371797 139.75795394 -90.13213458 138.34474927 -91.23828125 134.765625 C-91.70712962 130.81890139 -91.15540122 128.5182493 -88.8828125 125.2265625 C-85.84721288 121.8128259 -82.64945443 118.6667942 -79.24609375 115.62109375 C-78.52550781 114.96238281 -77.80492187 114.30367188 -77.0625 113.625 C-76.40121094 113.06554687 -75.73992187 112.50609375 -75.05859375 111.9296875 C-72.84580996 108.56529144 -73.39795438 105.72123433 -73.625 101.75 C-74.93855469 101.79640625 -76.25210938 101.8428125 -77.60546875 101.890625 C-79.34112304 101.92815266 -81.07680199 101.96455175 -82.8125 102 C-83.67681641 102.03351563 -84.54113281 102.06703125 -85.43164062 102.1015625 C-89.6861794 102.16676616 -91.98227716 102.14830711 -95.67578125 99.859375 C-98.70140057 96.5851577 -98.95854821 94.25280344 -98.91796875 89.7890625 C-98.46245033 86.61865433 -96.87184343 84.9307598 -94.625 82.75 C-92.27647472 81.57573736 -90.88725935 81.63491827 -88.2734375 81.65234375 C-87.42265625 81.65556641 -86.571875 81.65878906 -85.6953125 81.66210938 C-84.80585938 81.67048828 -83.91640625 81.67886719 -83 81.6875 C-82.1028125 81.69201172 -81.205625 81.69652344 -80.28125 81.70117188 C-78.06247169 81.71297389 -75.84372757 81.73090961 -73.625 81.75 C-73.295 78.78 -72.965 75.81 -72.625 72.75 C-73.945 72.09 -75.265 71.43 -76.625 70.75 C-79.21858662 68.57108143 -81.52577824 66.12505632 -83.875 63.6875 C-84.5246875 63.05650391 -85.174375 62.42550781 -85.84375 61.77539062 C-89.19370783 58.28819713 -91.05651975 55.88513937 -91.1796875 50.94140625 C-91.00926243 47.51510487 -90.59620002 46.7093412 -88.5 43.75 C-85.2339459 41.47796237 -83.60595021 40.670381 -79.625 40.75 C-74.37690284 43.04007876 -70.95613977 46.16505142 -67.10546875 50.359375 C-65.72056822 51.97821483 -65.72056822 51.97821483 -63.625 51.75 C-62.35263034 50.22529586 -62.35263034 50.22529586 -61.0625 48.25 C-56.42894915 41.85615409 -50.58801564 36.51535787 -43.625 32.75 C-42.965 32.75 -42.305 32.75 -41.625 32.75 C-41.68300781 31.85539062 -41.74101562 30.96078125 -41.80078125 30.0390625 C-42.17347866 20.05077197 -40.67200331 13.67203106 -34.3125 5.9375 C-24.41822281 -2.11598143 -12.14453733 -5.97152212 0 0 Z " fill="#020202" transform="translate(266.625,176.25)"/>
<path d="M0 0 C2.55590973 1.05306959 3.97675637 2.38211578 5.93402767 4.33599949 C6.68957439 5.08308674 7.44512112 5.83017399 8.22356319 6.59990025 C9.04289333 7.42530308 9.86222347 8.25070591 10.7063818 9.10112095 C12.01194279 10.3987965 12.01194279 10.3987965 13.34387875 11.72268772 C15.72980019 14.09765928 18.10876096 16.47920091 20.48444343 18.86438966 C22.97601534 21.36356287 25.47490587 23.85540089 27.97263241 26.34842014 C32.17022228 30.54054979 36.36144393 34.7389685 40.54915524 38.9409647 C45.37865738 43.78675131 50.21881409 48.62169328 55.06473058 53.45106083 C59.2317704 57.60444246 63.39287964 61.76369774 67.54918009 65.92782634 C70.02833346 68.41163797 72.5094239 70.89342354 74.9958849 73.36992168 C77.77393358 76.13761627 80.53950458 78.91757982 83.30403805 81.6987772 C84.12134396 82.51001041 84.93864986 83.32124363 85.78072262 84.15705967 C92.39636913 90.84650279 98.12053185 97.26824506 98.38240719 107.04032993 C98.30782828 114.09735912 96.20577345 118.44998039 91.56990719 123.66532993 C85.22248923 129.21932065 80.35619116 131.37004503 71.83553219 131.15361118 C58.21558752 129.67234601 46.79558465 113.71658455 37.62459469 104.50517368 C36.36115339 103.23986262 35.09748766 101.97477563 33.83360958 100.70990086 C30.54025007 97.41276012 27.24990717 94.11262553 23.96022701 90.81181431 C20.58978323 87.43106086 17.21643487 84.05320824 13.84334469 80.67509556 C7.2493857 74.07047695 0.6586164 67.46268539 -5.93009281 60.85282993 C-4.99306917 59.74790558 -4.05433583 58.64443101 -3.11490726 57.54155064 C-2.59233845 56.92689442 -2.06976963 56.3122382 -1.53136539 55.67895603 C1.26998492 52.48423518 4.32127961 49.56032108 7.36482906 46.59697056 C10.9394367 43.28949916 10.9394367 43.28949916 12.20271969 38.79423618 C12.20014156 38.00919712 12.19756344 37.22415806 12.19490719 36.41532993 C12.19748531 35.632869 12.20006344 34.85040806 12.20271969 34.04423618 C12.15373266 31.67387646 12.15373266 31.67387646 11.06990719 28.85282993 C7.27002069 27.5862011 3.99067098 27.02479859 0.06990719 27.85282993 C-3.02478433 29.75385472 -5.40480665 32.26120526 -7.93009281 34.85282993 C-8.91152339 35.82584344 -9.89470426 36.79709362 -10.87931156 37.76689243 C-13.58467673 40.44117634 -16.26239339 43.14099578 -18.93009281 45.85282993 C-23.00385312 44.24272467 -25.6951635 41.31460723 -28.68009281 38.22782993 C-29.18669437 37.71220493 -29.69329594 37.19657993 -30.21524906 36.66532993 C-31.45813183 35.39899655 -32.69474557 34.12651554 -33.93009281 32.85282993 C-28.44208059 26.31845687 -22.5890797 20.2230651 -16.58878422 14.16142368 C-15.3907187 12.94663182 -14.19806722 11.72647863 -13.01065922 10.50126743 C-11.28474606 8.7209016 -9.5432336 6.9572698 -7.79728031 5.19657993 C-7.26802952 4.64465977 -6.73877872 4.0927396 -6.19349003 3.52409458 C-2.46053773 -0.18761663 -2.46053773 -0.18761663 0 0 Z " fill="#45C071" transform="translate(393.9300928115845,361.1471700668335)"/>
<path d="M0 0 C7.9165605 5.59596069 14.30184238 13.91209853 16.51953125 23.4609375 C16.93414304 27.8617821 17.03522834 32.23058986 17.02050781 36.64990234 C17.01953935 38.69383586 17.06116494 40.73395379 17.10546875 42.77734375 C17.21364317 54.64077159 14.12940382 64.33699682 6.4609375 73.49609375 C3.16697885 76.8298185 -0.38217283 79.21744439 -4.48046875 81.4609375 C-5.18300781 81.87472656 -5.88554687 82.28851563 -6.609375 82.71484375 C-15.59987611 87.20227648 -28.06396386 87.35570018 -37.57421875 84.3203125 C-49.93370783 79.30257121 -57.04780557 72.12469926 -62.62109375 60.09375 C-65.23577488 53.36797797 -65.10341556 46.71866162 -65.04296875 39.5859375 C-65.06681641 38.30074219 -65.09066406 37.01554687 -65.11523438 35.69140625 C-65.09615248 23.16096206 -61.39286959 12.48093272 -52.48046875 3.4609375 C-49.64208231 1.09825828 -46.71643576 -0.76762631 -43.48046875 -2.5390625 C-42.77792969 -2.95285156 -42.07539063 -3.36664063 -41.3515625 -3.79296875 C-28.17576278 -10.36941139 -11.97722011 -7.431535 0 0 Z " fill="#FD5959" transform="translate(277.48046875,228.5390625)"/>
<path d="M0 0 C1.41244571 -0.00657338 1.41244571 -0.00657338 2.85342568 -0.01327956 C6.02241823 -0.02668064 9.19138296 -0.03284933 12.36039734 -0.03897095 C14.62693915 -0.04687076 16.8934797 -0.05513964 19.16001892 -0.06375122 C26.61441342 -0.08998119 34.06881357 -0.10527799 41.52323914 -0.11953735 C44.08716015 -0.12489628 46.65108112 -0.13027379 49.21500206 -0.13566971 C59.87714998 -0.1572982 70.53929502 -0.1761877 81.20145893 -0.1872921 C83.96781735 -0.19022178 86.73417573 -0.19318345 89.50053406 -0.19619751 C90.1880957 -0.19694356 90.87565735 -0.19768961 91.58405419 -0.19845827 C102.72494644 -0.21111501 113.86567921 -0.24434336 125.00649688 -0.28599934 C136.44461816 -0.32841648 147.88261843 -0.35157906 159.32082528 -0.35721266 C165.74300376 -0.36087136 172.16491177 -0.37294839 178.58701515 -0.4053154 C184.62728848 -0.43532193 190.6671266 -0.44173412 196.7074585 -0.42993164 C198.92544868 -0.4297103 201.14345863 -0.43806513 203.36137962 -0.45558548 C206.38776882 -0.47819281 209.41256863 -0.47002072 212.43896484 -0.45410156 C213.75789332 -0.47492469 213.75789332 -0.47492469 215.10346681 -0.49616849 C219.34746725 -0.44110039 222.07405034 -0.14839759 225.44061565 2.56519127 C228.37232639 5.63861929 228.97491551 7.06945087 229.22245789 11.15390015 C228.64432178 14.85397125 226.57448159 16.61330778 223.90995789 19.15390015 C220.52044437 20.8486569 216.66227923 20.29797409 212.93344116 20.29434204 C211.99195955 20.29731316 211.05047793 20.30028429 210.08046657 20.30334544 C206.90602709 20.31206024 203.7316252 20.31354303 200.55717468 20.31503296 C198.28915831 20.31965916 196.02114272 20.32468355 193.75312805 20.33007812 C187.57748818 20.3432231 181.40185918 20.34965115 175.22620749 20.35408878 C171.37108764 20.3570161 167.51597078 20.36112025 163.66085243 20.36559296 C152.9901612 20.37770486 142.31947362 20.38808591 131.64877605 20.39146805 C130.62399083 20.3917974 130.62399083 20.3917974 129.57850288 20.3921334 C128.89366339 20.39235168 128.2088239 20.39256996 127.5032317 20.39279485 C126.11545098 20.39323832 124.72767025 20.39368488 123.33988953 20.39413452 C122.30730534 20.39446667 122.30730534 20.39446667 121.25386087 20.39480552 C110.09934426 20.39875357 98.94489297 20.41620713 87.7904016 20.43949404 C76.3421519 20.46320157 64.89394967 20.47541159 53.44567233 20.47683597 C47.01632188 20.47788585 40.58706353 20.48383267 34.15773582 20.50165558 C28.11098906 20.51809124 22.06440406 20.52031367 16.01764297 20.51151657 C13.79602056 20.51074378 11.57438962 20.51512059 9.35278893 20.52497482 C6.3241399 20.53762284 3.29606999 20.53185632 0.26742554 20.52139282 C-0.61545507 20.52944923 -1.49833568 20.53750563 -2.40797025 20.54580617 C-7.13659013 20.50749612 -10.24523986 20.21419148 -14.09004211 17.15390015 C-16.65604168 14.07470067 -17.09850196 12.63611136 -17.02754211 8.59140015 C-16.01060127 4.86261706 -15.12435756 3.47425902 -12.09004211 1.15390015 C-8.06888163 -0.18648668 -4.19355406 0.00235601 0 0 Z " fill="#000000" transform="translate(229.0900421142578,35.846099853515625)"/>
<path d="M0 0 C0.81956177 -0.00817749 1.63912354 -0.01635498 2.48352051 -0.02478027 C5.20881408 -0.04968884 7.93405528 -0.06616665 10.65942383 -0.08056641 C12.05346656 -0.08855192 12.05346656 -0.08855192 13.47567177 -0.09669876 C18.39734702 -0.12345767 23.3189967 -0.1428213 28.24072266 -0.15722656 C33.32414975 -0.17385564 38.40692613 -0.21861085 43.49010754 -0.26959801 C47.39779905 -0.30327062 51.30533642 -0.3148042 55.21315956 -0.32045364 C57.08665231 -0.32716914 58.96013481 -0.34239898 60.83348656 -0.36634445 C63.45983983 -0.39799153 66.08444333 -0.39803347 68.7109375 -0.390625 C69.86844261 -0.415233 69.86844261 -0.415233 71.04933167 -0.44033813 C76.88873741 -0.37306031 79.24946905 1.17304471 83.17895508 5.19287109 C84.48424422 7.89185542 84.64107182 10.23532397 84.17895508 13.19287109 C82.48269483 16.26734279 80.36284377 18.60092675 77.17895508 20.19287109 C74.52071221 20.31201167 71.88785297 20.37121395 69.22851562 20.38574219 C68.40720154 20.39391968 67.58588745 20.40209717 66.73968506 20.41052246 C64.01502211 20.43538493 61.29041127 20.45189435 58.56567383 20.46630859 C57.63598093 20.47163227 56.70628803 20.47695595 55.74842262 20.48244095 C50.8278956 20.50917585 45.90739398 20.52854992 40.98681641 20.54296875 C35.90219973 20.55962032 30.81823075 20.60440126 25.73385906 20.65534019 C21.82621 20.68898128 17.91871529 20.70054271 14.01093483 20.70619583 C12.13661561 20.71291668 10.26230683 20.72816037 8.38812828 20.75208664 C5.76407319 20.78367536 3.14177311 20.78378486 0.51757812 20.77636719 C-0.25611618 20.79277252 -1.02981049 20.80917786 -1.82695007 20.82608032 C-5.90721196 20.77888589 -7.60327371 20.3749665 -10.77970886 17.71890259 C-11.45334976 16.88531219 -12.12699066 16.0517218 -12.82104492 15.19287109 C-13.15104492 14.86287109 -13.48104492 14.53287109 -13.82104492 14.19287109 C-14.11427358 11.26058446 -14.32108739 9.04795227 -13.82104492 6.19287109 C-11.38354492 3.25537109 -11.38354492 3.25537109 -8.82104492 1.19287109 C-6.81385383 -0.81432 -2.75225036 0.0149969 0 0 Z " fill="#010101" transform="translate(373.821044921875,117.80712890625)"/>
<path d="M0 0 C1.0566259 -0.00744736 1.0566259 -0.00744736 2.13459778 -0.01504517 C4.46425352 -0.02964659 6.79384118 -0.03646521 9.12353516 -0.04199219 C10.74394736 -0.04774508 12.36435955 -0.0535028 13.98477173 -0.05926514 C17.38259193 -0.06976922 20.78038851 -0.07561583 24.17822266 -0.07910156 C28.52839313 -0.08458664 32.87825066 -0.10861726 37.22832298 -0.13707352 C40.57580473 -0.15571246 43.92321126 -0.16090615 47.27074051 -0.16243744 C48.87429135 -0.16546141 50.47784095 -0.17348133 52.08134079 -0.18662262 C54.3266038 -0.20371069 56.57110428 -0.2017966 58.81640625 -0.1953125 C60.09309174 -0.19895813 61.36977722 -0.20260376 62.68515015 -0.20635986 C66.31636636 0.19169122 68.15761761 0.95482072 71.03759766 3.16113281 C73.4836547 6.83021839 73.87706168 9.8973205 73.03759766 14.16113281 C70.8618535 16.8521848 69.12693909 18.61646209 66.03759766 20.16113281 C63.75654173 20.26869881 61.4722788 20.31005866 59.1887207 20.32226562 C58.48444946 20.32723053 57.78017822 20.33219543 57.05456543 20.33731079 C54.71947255 20.35194192 52.38444764 20.35873649 50.04931641 20.36425781 C48.42747495 20.37000915 46.80563352 20.37576689 45.18379211 20.38153076 C41.77999555 20.39204391 38.37622263 20.3978843 34.97241211 20.40136719 C30.61436585 20.40684799 26.25663266 20.43086563 21.8986845 20.45933914 C18.54691156 20.47798031 15.19521373 20.48317194 11.84339333 20.48470306 C10.23705143 20.48772756 8.63071079 20.49574927 7.02441978 20.50888824 C4.77425861 20.52597764 2.52485827 20.52406165 0.2746582 20.51757812 C-1.00504349 20.52122375 -2.28474518 20.52486938 -3.60322571 20.52862549 C-8.05195564 20.04193609 -10.56632739 18.41760027 -13.83740234 15.47363281 C-15.55752295 11.93782934 -15.09624349 8.86704312 -13.96240234 5.16113281 C-10.02991942 0.04890501 -6.14879962 0.03292621 0 0 Z " fill="#010101" transform="translate(68.96240234375,393.8388671875)"/>
<path d="M0 0 C0.96465179 -0.00960754 1.92930359 -0.01921509 2.92318726 -0.02911377 C3.96383331 -0.03336365 5.00447937 -0.03761353 6.07666016 -0.04199219 C7.14816315 -0.04769226 8.21966614 -0.05339233 9.32363892 -0.05926514 C11.59156303 -0.06871456 13.85950088 -0.07524889 16.12744141 -0.07910156 C19.59513303 -0.08880955 23.06223259 -0.11983502 26.52978516 -0.15136719 C28.73290664 -0.15789709 30.93603235 -0.16314761 33.13916016 -0.16699219 C34.17575775 -0.17933899 35.21235535 -0.19168579 36.28036499 -0.20440674 C45.37442518 -0.17629819 45.37442518 -0.17629819 49.24072266 3.16113281 C51.6867797 6.83021839 52.08018668 9.8973205 51.24072266 14.16113281 C49.0649785 16.8521848 47.33006409 18.61646209 44.24072266 20.16113281 C42.69477151 20.26616743 41.14443598 20.30983286 39.5949707 20.32226562 C38.14787971 20.33667694 38.14787971 20.33667694 36.67155457 20.35137939 C35.62574722 20.35562927 34.57993988 20.35987915 33.50244141 20.36425781 C31.8930645 20.37280792 31.8930645 20.37280792 30.25117493 20.38153076 C27.97727446 20.39098964 25.70336024 20.39751826 23.42944336 20.40136719 C19.9528809 20.41106404 16.47691167 20.44207603 13.00048828 20.47363281 C10.79280951 20.48016361 8.58512649 20.48541378 6.37744141 20.48925781 C5.33770676 20.50160461 4.29797211 20.51395142 3.22673035 20.52667236 C-3.18042812 20.50693429 -6.7731573 19.84864085 -11.63427734 15.47363281 C-13.35439795 11.93782934 -12.89311849 8.86704312 -11.75927734 5.16113281 C-8.42155964 0.82209979 -5.29757695 0.04261847 0 0 Z " fill="#010101" transform="translate(66.75927734375,353.8388671875)"/>
<path d="M0 0 C0.97610229 -0.00478363 1.95220459 -0.00956726 2.95788574 -0.01449585 C5.01539732 -0.01788844 7.07296326 -0.00873105 9.13037109 0.01220703 C12.27173562 0.03898141 15.40952727 0.01243705 18.55078125 -0.01953125 C20.55469535 -0.01622704 22.55860724 -0.00982057 24.5625 0 C25.49703003 -0.01012115 26.43156006 -0.02024231 27.39440918 -0.03067017 C31.81201346 0.04834907 34.84657596 0.2429712 38.35864258 3.07885742 C41.24004541 6.15365079 41.84786106 7.60689505 42.09375 11.6640625 C41.51561389 15.3641336 39.4457737 17.12347013 36.78125 19.6640625 C34.47249662 20.81843919 33.08927545 20.81437817 30.51855469 20.85693359 C29.63713806 20.87299652 28.75572144 20.88905945 27.84759521 20.90560913 C23.80970019 20.9500981 19.77196966 20.99113518 15.73388672 21.01416016 C13.60584569 21.0307069 11.47785993 21.05797987 9.35009766 21.09619141 C6.27998047 21.15104048 3.2111666 21.17284789 0.140625 21.1875 C-0.80645325 21.21016937 -1.75353149 21.23283875 -2.72930908 21.25619507 C-7.17165764 21.24203344 -10.26236234 21.12128943 -13.81640625 18.28759766 C-16.4003432 15.46574944 -17.03926374 14.42479543 -16.96875 10.6640625 C-16.98421875 9.8390625 -16.9996875 9.0140625 -17.015625 8.1640625 C-14.43524268 0.0687454 -7.21515128 -0.07814159 0 0 Z " fill="#010101" transform="translate(416.21875,157.3359375)"/>
<path d="M0 0 C2.87305972 1.40460697 4.74510999 2.74510999 7 5 C7.57030597 8.05563938 7.53881742 10.94141876 7 14 C4.5625 17 4.5625 17 2 19 C1.67 19.33 1.34 19.66 1 20 C-3.65406121 19.84486463 -6.10238562 19.59840959 -10 17 C-12.35579907 13.4663014 -12.73848094 11.33716447 -12.48046875 7.16015625 C-10.99125324 0.46474017 -6.1406118 -0.87723026 0 0 Z " fill="#050505" transform="translate(256,113)"/>
<path d="M0 0 C2.875 2.4375 2.875 2.4375 5 5 C5.33 5.33 5.66 5.66 6 6 C6.29322866 8.93228663 6.50004247 11.14491883 6 14 C3.5625 16.9375 3.5625 16.9375 1 19 C0.67 19.33 0.34 19.66 0 20 C-4.16400962 20.40038554 -6.32250696 20.44184328 -9.875 18.125 C-12.80038857 15.19961143 -12.96503325 14.42659437 -13.3125 10.1875 C-13.28232024 6.86772673 -13.0060988 6.00955479 -11.125 3.0625 C-7.53138797 -0.42541756 -4.95990361 -0.50439698 0 0 Z " fill="#070707" transform="translate(174,394)"/>
<path d="M0 0 C3.23614894 2.12904535 4.29269525 4.18134969 5.0625 7.875 C5.334065 11.41859207 4.9214213 12.13505715 3 15.4375 C-0.54594585 18.46632874 -2.36299711 19.08280362 -7 19 C-10.62036655 17.4366599 -13.2601659 15.57632565 -15 12 C-15.21431243 7.84233882 -14.6796522 4.88354786 -12.125 1.5625 C-7.96492179 -1.49638104 -4.8863851 -1.11443871 0 0 Z " fill="#020405" transform="translate(149,37)"/>
<path d="M0 0 C3.23614894 2.12904535 4.29269525 4.18134969 5.0625 7.875 C5.334065 11.41859207 4.9214213 12.13505715 3 15.4375 C-0.54594585 18.46632874 -2.36299711 19.08280362 -7 19 C-10.62036655 17.4366599 -13.2601659 15.57632565 -15 12 C-15.21431243 7.84233882 -14.6796522 4.88354786 -12.125 1.5625 C-7.96492179 -1.49638104 -4.8863851 -1.11443871 0 0 Z " fill="#020405" transform="translate(109,37)"/>
<path d="M0 0 C3.23614894 2.12904535 4.29269525 4.18134969 5.0625 7.875 C5.334065 11.41859207 4.9214213 12.13505715 3 15.4375 C-0.54594585 18.46632874 -2.36299711 19.08280362 -7 19 C-10.62036655 17.4366599 -13.2601659 15.57632565 -15 12 C-15.21431243 7.84233882 -14.6796522 4.88354786 -12.125 1.5625 C-7.96492179 -1.49638104 -4.8863851 -1.11443871 0 0 Z " fill="#020405" transform="translate(69,37)"/>
<path d="M0 0 C2.5625 1.75 2.5625 1.75 4 4 C4 5.32 4 6.64 4 8 C-1.61 8 -7.22 8 -13 8 C-11.35699135 -0.21504324 -7.88900403 -1.29584723 0 0 Z " fill="#44AAE1" transform="translate(258,194)"/>
</svg>
